<svg id="Calque_1" data-name="Calque 1" xmlns="http://www.w3.org/2000/svg" viewBox="0 0 340.16 340.16"><defs><style>
  .cls-1{fill:none;stroke:#c62828;stroke-miterlimit:10;stroke-width:1.5px;}.cls-2{fill:#c62828;}</style></defs><title>LogoMini_B&amp;amp;NS</title><path class="cls-1" d="M221.2,156a67.43,67.43,0,0,0-12.33,10.09,152.5,152.5,0,0,0-11.4,13.18q-5.59,7.22-11.79,14.35c1.44,1.86,3.1,4,5,6.44a94,94,0,0,0,7,8,45.94,45.94,0,0,0,8.15,6.83,18.41,18.41,0,0,0,10.16,2.63,13.79,13.79,0,0,0,5.82-1.24,24,24,0,0,0,5-3.1,30.83,30.83,0,0,0,4.19-4,27.94,27.94,0,0,0,2.94-4l1.4.62a28.31,28.31,0,0,1-4,7.06,41.46,41.46,0,0,1-6.9,7.37,36.13,36.13,0,0,1-9.07,5.59,26.41,26.41,0,0,1-10.48,2.17,24.67,24.67,0,0,1-9.46-1.79,31.66,31.66,0,0,1-8.14-4.88,50.11,50.11,0,0,1-7.06-7.06,79.3,79.3,0,0,1-5.9-8.15,56.18,56.18,0,0,1-13.88,13.66A46.91,46.91,0,0,1,150,225a35.24,35.24,0,0,1-12.11,2.09A37.48,37.48,0,0,1,125,225a26.4,26.4,0,0,1-9.62-5.9,26,26,0,0,1-6-8.92,27.92,27.92,0,0,1-2.1-10.7,26.86,26.86,0,0,1,2.72-12,37.28,37.28,0,0,1,7.13-9.92,59.13,59.13,0,0,1,9.85-7.92,116.19,116.19,0,0,1,10.71-6.12q-3.42-3.57-6.36-6.44a42,42,0,0,1-5.12-6,28.13,28.13,0,0,1-3.49-6.82,26.5,26.5,0,0,1-1.32-8.84,18.83,18.83,0,0,1,2.4-9.39,24.76,24.76,0,0,1,6.21-7.29,29.83,29.83,0,0,1,8.53-4.73,27.68,27.68,0,0,1,17.77-.47,23.12,23.12,0,0,1,7.21,3.65,18.8,18.8,0,0,1,5.2,6.12,18,18,0,0,1,2,8.69,18.66,18.66,0,0,1-2.17,9,33,33,0,0,1-5,7.06,36.18,36.18,0,0,1-5.82,5q-2.94,2-4.5,2.95a86.39,86.39,0,0,1,8.85,7.83q4,4.11,7.91,8.46,4.34,5,8,10.08t6.28,9.47q3.57-4.5,6.75-9t5.58-8.53a58.73,58.73,0,0,0,3.8-7.37,14.7,14.7,0,0,0,1.4-5.36,7.35,7.35,0,0,0-1.78-5.27,11,11,0,0,0-4.73-2.79,27.91,27.91,0,0,0-6.52-1.17q-3.57-.22-7.14-.38v-1.87L237,148.9v1.86C231.66,151.49,225.55,153.22,221.2,156Zm-51.81,42q-1.86-2.7-3.8-5.27c-1.3-1.71-2.69-3.46-4.19-5.28s-3.18-3.85-5-6.12q-1.56-1.86-3.8-4.19t-4.66-4.58c-1.6-1.5-3.16-2.92-4.65-4.27l-3.8-3.41A61.33,61.33,0,0,0,134,170a45.46,45.46,0,0,0-5.12,6.52,35.07,35.07,0,0,0-3.8,7.83,27,27,0,0,0-1.48,8.92,25.34,25.34,0,0,0,1.55,8.84,21.92,21.92,0,0,0,4.5,7.37,20.9,20.9,0,0,0,7,5,21.63,21.63,0,0,0,8.85,1.78,41.93,41.93,0,0,0,8.53-.77,32.07,32.07,0,0,0,6.9-2.25,33,33,0,0,0,6.13-3.73c2-1.49,4-3.23,6.21-5.19Q171.24,200.72,169.39,198Zm-10.94-70a21.33,21.33,0,0,0-2.87-6.21,15.9,15.9,0,0,0-4.5-4.42,10.35,10.35,0,0,0-5.74-1.71,9.06,9.06,0,0,0-4.81,1.24,10.55,10.55,0,0,0-3.26,3.11,14.08,14.08,0,0,0-1.86,4,14.88,14.88,0,0,0-.62,4,25.54,25.54,0,0,0,.93,7.76,23.42,23.42,0,0,0,3.26,6,39,39,0,0,0,5.66,6.44q3,2.71,7.22,6.44a26.91,26.91,0,0,0,5.81-8.69,30,30,0,0,0,1.79-11A25.35,25.35,0,0,0,158.45,128Z"/><path class="cls-2" d="M245.47,207.51v-13.2l61-20.42V172l-61-20.42v-13.2L311.15,161v23.89Z"/><path class="cls-2" d="M99.06,138.38v13.2L38.1,172v1.89l61,20.42v13.2L33.39,184.89V161Z"/></svg>
