<svg id="Calque_1" data-name="Calque 1" xmlns="http://www.w3.org/2000/svg" viewBox="0 0 566.93 340.16"><defs><style>.cls-1,.cls-4{fill:none;}.cls-1,.cls-3,.cls-4{stroke:#c62828;stroke-miterlimit:10;}.cls-2,.cls-3{fill:#c62828;}.cls-4{stroke-width:0.8px;}</style></defs><title>Logo_B&amp;amp;NS</title><path class="cls-1" d="M168.17,161.46q5.28-4.68,5.28-12.82v-2.17a14.71,14.71,0,0,0-5.58-12.14q-5.58-4.44-14.48-4.45H133.33v36.25h20.51Q162.9,166.13,168.17,161.46Z"/><path class="cls-1" d="M153.84,174.74H133.33v37.19h20.06c5.93,0,12-1.48,15.74-4.45s6.84-8.32,6.84-13.54v-1.55q0-8.14-5.28-12.9C167.17,176.32,159.88,174.74,153.84,174.74Z"/><path class="cls-2" d="M181.66,199.48a26.85,26.85,0,0,1,2.71-12,37.91,37.91,0,0,1,2.33-4,20.93,20.93,0,0,0-2.54-3.72c-3.42-4-11.41-6.66-16.44-8.07v-1.81a26.39,26.39,0,0,0,7-3.09,24,24,0,0,0,5.66-4.9,21.74,21.74,0,0,0,3.77-6.49,22.44,22.44,0,0,0,1.36-8v-1.81a29,29,0,0,0-2-10.94,23.4,23.4,0,0,0-6-8.67,29.53,29.53,0,0,0-9.81-5.73,38.87,38.87,0,0,0-13.34-2.11H111.61v11.76h9v82.05h-9V223.7H154.3c5,0,13.24-.7,17.12-2.11a28.65,28.65,0,0,0,9.8-5.81,24.34,24.34,0,0,0,3.36-3.83c-.29-.58-.58-1.16-.83-1.77A27.91,27.91,0,0,1,181.66,199.48Zm-48.33-69.6h20.06q8.9,0,14.48,4.45a14.71,14.71,0,0,1,5.58,12.14v2.17q0,8.15-5.28,12.82t-14.33,4.67H133.33ZM176,193.94c0,5.22-3.12,10.58-6.84,13.54s-9.81,4.45-15.74,4.45H133.33V174.74h20.51c6,0,13.33,1.58,16.85,4.75S176,187,176,192.39Z"/><path class="cls-3" d="M298.78,220.11a35,35,0,0,1-5.14,3.59h11.77V213.1A41.91,41.91,0,0,1,298.78,220.11Z"/><path class="cls-2" d="M350.36,218.27h-1.81L318.08,118.12H292.74v99.12a13.35,13.35,0,0,0,3.33-1,23.72,23.72,0,0,0,5-3.1,30.83,30.83,0,0,0,4.19-4l.11-.14V123.55h1.81L337.69,223.7H363V118.12H350.36Z"/><path class="cls-2" d="M441,174q-7.84-7.16-24.43-9.73a107.11,107.11,0,0,1-12.37-2.49,33.45,33.45,0,0,1-8.83-3.62,15.29,15.29,0,0,1-5.35-5.28,14.47,14.47,0,0,1-1.81-7.46v-.91a13.88,13.88,0,0,1,1.81-7.16,16.22,16.22,0,0,1,4.9-5.21,24.57,24.57,0,0,1,7-3.24,29.86,29.86,0,0,1,8.29-1.13,32.67,32.67,0,0,1,9.5,1.36,25.73,25.73,0,0,1,8,3.92,18.51,18.51,0,0,1,5.5,6.49,19.32,19.32,0,0,1,2,9.05V154H447.9v-6.33a30.49,30.49,0,0,0-2.49-12.14,28.51,28.51,0,0,0-7.31-10.11,36.47,36.47,0,0,0-11.85-6.86,50.37,50.37,0,0,0-30-.53,32.92,32.92,0,0,0-11,5.81,27,27,0,0,0-7.17,8.9,24.93,24.93,0,0,0-2.56,11.31v1.81a26.7,26.7,0,0,0,2.41,11.77,24.2,24.2,0,0,0,6.94,8.52,37,37,0,0,0,10.94,5.73,74.59,74.59,0,0,0,14.4,3.24q13.72,2,19.84,6.34t6.1,12.67v.9q0,8.6-5.95,13.8t-17.73,5.21q-13.57,0-21.19-6.94t-7.61-20.82v-3.62H371v4.53a42.08,42.08,0,0,0,2.71,15.31,34.94,34.94,0,0,0,7.92,12.22,36.23,36.23,0,0,0,13,8.14,50.31,50.31,0,0,0,17.87,2.94,49.52,49.52,0,0,0,15.69-2.26,32.33,32.33,0,0,0,11.39-6.34,26.19,26.19,0,0,0,6.94-9.73A32.39,32.39,0,0,0,448.8,195v-1.81Q448.8,181.17,441,174Z"/><path class="cls-1" d="M311.37,150.76V148.9L305,149v2.9A58.57,58.57,0,0,1,311.37,150.76Z"/><path class="cls-4" d="M301.11,213.13a23.72,23.72,0,0,1-5,3.1,13.35,13.35,0,0,1-3.33,1,13.57,13.57,0,0,1-2.49.23,18.43,18.43,0,0,1-10.16-2.63A45.55,45.55,0,0,1,272,208a94.25,94.25,0,0,1-7-8q-2.79-3.65-5-6.44,6.21-7.12,11.79-14.35a152.5,152.5,0,0,1,11.4-13.18,56.65,56.65,0,0,1,10.26-8.6l.36-8.15-37.84.84V152q3.55.15,7.13.38a27.91,27.91,0,0,1,6.52,1.17,11,11,0,0,1,4.73,2.79,7.31,7.31,0,0,1,1.78,5.27,14.85,14.85,0,0,1-1.39,5.36,59.33,59.33,0,0,1-3.8,7.36q-2.42,4-5.59,8.54t-6.75,9q-2.64-4.35-6.28-9.47a128.18,128.18,0,0,0-8-10.08q-3.89-4.35-7.91-8.46a87.33,87.33,0,0,0-8.84-7.83q1.54-.93,4.5-2.95a36.13,36.13,0,0,0,5.81-5,32.66,32.66,0,0,0,5.05-7.06,18.77,18.77,0,0,0,2.17-9,18,18,0,0,0-2-8.69,18.8,18.8,0,0,0-5.2-6.12,23,23,0,0,0-7.21-3.65,27.65,27.65,0,0,0-17.76.47,29.88,29.88,0,0,0-8.54,4.73,24.73,24.73,0,0,0-6.2,7.29,18.7,18.7,0,0,0-2.41,9.39,26.5,26.5,0,0,0,1.32,8.84,28.13,28.13,0,0,0,3.49,6.82,42.67,42.67,0,0,0,5.12,6q3,2.87,6.36,6.44a117.4,117.4,0,0,0-10.7,6.12,58.73,58.73,0,0,0-9.85,7.92,37.08,37.08,0,0,0-4.81,5.92,37.91,37.91,0,0,0-2.33,4,26.85,26.85,0,0,0-2.71,12,27.91,27.91,0,0,0,2.09,10.7c.25.61.54,1.19.83,1.77a26,26,0,0,0,5.14,7.15,26.48,26.48,0,0,0,9.62,5.9,37.54,37.54,0,0,0,12.88,2.09,35.18,35.18,0,0,0,12.1-2.09,46.91,46.91,0,0,0,10.47-5.35,53.64,53.64,0,0,0,8.3-7,54.3,54.3,0,0,0,5.59-6.67,77.71,77.71,0,0,0,5.89,8.15,50.11,50.11,0,0,0,7.06,7.06,31.83,31.83,0,0,0,8.14,4.88,24.68,24.68,0,0,0,9.47,1.79,26.33,26.33,0,0,0,10.47-2.17,37.14,37.14,0,0,0,3.93-2,35,35,0,0,0,5.14-3.59,41.91,41.91,0,0,0,6.63-7l.28-.36a28.56,28.56,0,0,0,3.95-7.06l-1.39-.62a27.22,27.22,0,0,1-2.84,3.9l-.11.14A30.83,30.83,0,0,1,301.11,213.13Zm-91.06-77.26a25.5,25.5,0,0,1-.94-7.76,14.53,14.53,0,0,1,.63-4,14.08,14.08,0,0,1,1.86-4,10.41,10.41,0,0,1,3.25-3.11,9.08,9.08,0,0,1,4.81-1.24,10.35,10.35,0,0,1,5.74,1.71,15.9,15.9,0,0,1,4.5,4.42,21.33,21.33,0,0,1,2.87,6.21,25.35,25.35,0,0,1,1,7.05,30,30,0,0,1-1.78,11,27,27,0,0,1-5.82,8.69q-4.19-3.72-7.21-6.44a38.56,38.56,0,0,1-5.67-6.44A23.36,23.36,0,0,1,210.05,135.87Zm31.33,73.61a32.89,32.89,0,0,1-6.12,3.73,32.34,32.34,0,0,1-6.91,2.25,41.93,41.93,0,0,1-8.53.77,21.55,21.55,0,0,1-8.84-1.78,20.8,20.8,0,0,1-7-5,21.61,21.61,0,0,1-4.5-7.37,25.11,25.11,0,0,1-1.56-8.84,27,27,0,0,1,1.48-8.92,35.51,35.51,0,0,1,3.8-7.83,46.18,46.18,0,0,1,5.12-6.52,61.33,61.33,0,0,1,5.43-5.12l3.8,3.41q2.25,2,4.65,4.27t4.66,4.58c1.5,1.55,2.76,3,3.8,4.19,1.86,2.27,3.54,4.32,5,6.12s2.9,3.57,4.19,5.28,2.56,3.47,3.8,5.27,2.53,3.91,3.88,6.29C245.42,206.25,243.35,208,241.38,209.48Z"/><polygon class="cls-2" points="460.17 135.51 460.17 148.71 521.13 169.14 521.13 171.02 460.17 191.45 460.17 204.64 525.85 182.02 525.85 158.14 460.17 135.51"/><polygon class="cls-2" points="40.08 182.85 105.76 205.47 105.76 192.28 44.8 171.85 44.8 169.97 105.76 149.54 105.76 136.34 40.08 158.97 40.08 182.85"/></svg>